<svg xmlns="http://www.w3.org/2000/svg" width="22" height="22" viewBox="0 0 22 22">
    <g fill="none" fill-rule="evenodd">
        <path fill="#53A385" d="M4.504 4.696L4.504 16.059 13.649 16.059 12.738 20.619 18.259 16.059 20.971 16.059 20.971 4.696z"/>
        <g>
            <path stroke="#53A385" stroke-linecap="round" stroke-linejoin="round" stroke-width="1.237" d="M20.971 15.822L18.258 15.822 12.738 20.381 13.649 15.822 4.504 15.822 4.504 4.458 20.971 4.458z" transform="translate(0 .237)"/>
            <path stroke="#53A385" stroke-linecap="round" stroke-linejoin="round" stroke-width="1.237" d="M2.23 11.797L0.619 11.797 0.619 0.382 16.383 0.382 16.383 2.465" transform="translate(0 .237)"/>
            <path fill="#FFF" d="M9.929 10.207c0 .504-.408.913-.912.913-.505 0-.913-.409-.913-.913s.408-.913.913-.913c.504 0 .912.41.912.913M13.65 10.207c0 .504-.409.913-.912.913-.505 0-.912-.409-.912-.913s.407-.913.912-.913c.504 0 .912.41.912.913M17.371 10.207c0 .504-.408.913-.912.913s-.913-.409-.913-.913.41-.913.913-.913c.504 0 .912.41.912.913" transform="translate(0 .237)"/>
        </g>
    </g>
</svg>
