<svg xmlns="http://www.w3.org/2000/svg" width="51" height="51" viewBox="0 0 51 51">
    <g fill="none" fill-rule="evenodd" stroke-linecap="round" stroke-linejoin="round">
        <path stroke="#4A4A4A" stroke-width="1.8" d="M25.484 50.067h0C11.907 50.067.9 39.06.9 25.484.9 11.906 11.907.9 25.484.9s24.583 11.006 24.583 24.584c0 13.577-11.006 24.583-24.583 24.583z"/>
        <path stroke="#4A4A4A" stroke-width="1.8" d="M31.676 19.668c-1.652-2.733-4.107-4.294-8.39-3.369-4.282.926-5.02 4.64-3.623 6.292 1.4 1.653 3.724 2.087 5.707 2.696 1.984.61 6.333.966 6.878 4.296.573 3.496-2.32 5.623-6.76 5.623-1.693 0-5.252-.284-6.84-4.225"/>
        <path stroke="#95BFAF" stroke-width="1.944" d="M31.676 19.668c-1.652-2.733-4.107-4.294-8.39-3.369-4.282.926-5.02 4.64-3.623 6.292M25.488 12.486v3.547"/>
        <path stroke="#4A4A4A" stroke-width="1.8" d="M25.488 38.481v-3.275"/>
    </g>
</svg>
