<svg xmlns="http://www.w3.org/2000/svg" width="51" height="51" viewBox="0 0 51 51">
    <g fill="none" fill-rule="evenodd" stroke-linecap="round" stroke-linejoin="round">
        <path stroke="#4A4A4A" stroke-width="1.8" d="M31.629 21.215c2.338 1.87 3.835 4.747 3.835 7.973 0 5.634-4.567 10.201-10.202 10.201S15.06 34.822 15.06 29.188c0-3.963 2.258-7.398 5.559-9.088"/>
        <path stroke="#4A4A4A" stroke-width="1.8" d="M25.262 21.725c4.12 0 7.462 3.34 7.462 7.462s-3.341 7.463-7.462 7.463c-4.121 0-7.463-3.341-7.463-7.463 0-2.181.937-4.144 2.429-5.508"/>
        <path stroke="#95BFAF" stroke-width="1.662" d="M24.997 21.353L20.62 16.159 23.035 13.808 26.977 13.808 29.374 16.159zM20.62 16.159h4.95"/>
        <path stroke="#4A4A4A" stroke-width="1.8" d="M29.835 11.905l.687-2.918M32.288 13.535l2.612-2.317M33.44 16.159l3.091-.48M49.477 25.189c0 13.414-10.874 24.289-24.288 24.289C11.774 49.478.9 38.603.9 25.188.9 11.776 11.774.9 25.189.9c13.413 0 24.288 10.875 24.288 24.289z"/>
    </g>
</svg>
